<svg xmlns="http://www.w3.org/2000/svg" viewBox="0 0 128 128">
  <path d="M77.296875 1.1660156C76.575 1.1191406 75.825781 1.3242188 75.300781 1.6992188C74.500781 2.2992187 74 3.1992187 74 4.1992188L74 39L54 39L54 4.1992188C54 3.1992188 53.499219 2.3007813 52.699219 1.8007812C51.999219 1.2007812 50.9 1.0007812 50 1.3007812C45.1 3.0007813 40.6 5.6003906 36.5 8.9003906C35.2 10.000391 34.999609 11.799609 36.099609 13.099609C37.199609 14.399609 39.000781 14.6 40.300781 13.5C42.700781 11.5 45.200391 9.8996094 47.900391 8.5996094L47.900391 42C47.900391 43.7 49.200391 45 50.900391 45L76.900391 45C78.600391 45 79.900391 43.7 79.900391 42L79.900391 8.5996094C92.600391 14.699609 100.90039 27.6 100.90039 42C101.00039 57.8 91 71.9 76 77C74.8 77.4 74 78.600781 74 79.800781L74 124C74 125.7 75.3 127 77 127C78.7 127 80 125.7 80 124L80 81.900391C96.2 75.400391 107 59.6 107 42C107 23.6 95.3 7.3007812 78 1.3007812C77.775 1.2257812 77.5375 1.1816406 77.296875 1.1660156 z M 27.300781 23.099609 A 3 3 0 0 0 24.300781 26.099609 A 3 3 0 0 0 27.300781 29.099609 A 3 3 0 0 0 30.300781 26.099609 A 3 3 0 0 0 27.300781 23.099609 z M 24 39C22.3 39 21 40.3 21 42C21 59.6 31.8 75.400391 48 81.900391L48 124C48 125.7 49.3 127 51 127C52.7 127 54 125.7 54 124L54 79.800781C54 78.500781 53.2 77.4 52 77C37 71.9 27 57.8 27 42C27 40.3 25.7 39 24 39 z" fill="#4B1C97" />
</svg>