<svg xmlns="http://www.w3.org/2000/svg" viewBox="0 0 128 128">
  <path d="M64.347656 1.0195312C63.199609 1.0101563 62.050391 1.0371094 60.900391 1.0996094C47.900391 1.7996094 35.7 7.3992188 26.5 16.699219C17.2 25.999219 11.699609 38.300781 11.099609 51.300781C10.099609 70.000781 18.800781 87.5 34.300781 98C35.700781 98.9 37.6 98.599219 38.5 97.199219C39.4 95.799219 39.099219 93.9 37.699219 93C23.999219 83.7 16.199609 68.199609 17.099609 51.599609C18.199609 27.999609 37.599219 8.3996094 61.199219 7.0996094C69.399219 6.5996094 77.500781 8.3003906 84.800781 11.900391C97.300781 18.100391 106.6 30.200391 109.5 44.400391L115.90039 75.099609C115.90039 75.199609 116 75.300391 116 75.400391C116.3 76.500391 116.10078 77.600391 115.30078 78.400391L112.5 81.199219C110.9 82.899219 110 85.1 110 87.5L110 102C110 104.8 107.8 107 105 107L97 107C89.8 107 84 112.8 84 120L84 124C84 125.7 85.3 127 87 127C88.7 127 90 125.7 90 124L90 120C90 116.1 93.1 113 97 113L105 113C111.1 113 116 108.1 116 102L116 87.5C116 86.7 116.30078 86.000391 116.80078 85.400391L119.59961 82.599609C121.89961 80.299609 122.70078 76.900781 121.80078 73.800781L115.40039 43.199219C112.00039 27.199219 101.6 13.5 87.5 6.5C80.325 2.9125 72.383984 1.0851563 64.347656 1.0195312 z M 65.988281 16.025391C64.850781 16.050391 63.699609 16.300781 62.599609 16.800781C60.899609 17.600781 59.499609 18.800781 58.599609 20.300781C55.299609 18.100781 50.899609 17.600781 47.099609 19.300781C43.199609 21.000781 40.699219 24.6 40.199219 28.5C38.199219 28.3 36.099219 28.6 34.199219 29.5C28.199219 32.2 25.499219 39.300391 28.199219 45.400391L28.5 46C24.9 49.4 23.700781 54.799609 25.800781 59.599609C28.500781 65.599609 35.599219 68.299609 41.699219 65.599609C43.699219 64.699609 49.599219 62.100391 56.699219 58.900391C57.499219 58.500391 58.399609 59.299609 58.099609 60.099609C56.899609 63.199609 56.300781 66.599609 56.300781 70.099609L56.300781 101.90039C56.300781 103.40039 57.299219 104.7 58.699219 105C60.599219 105.4 62.300781 103.89961 62.300781 102.09961L62.300781 70.099609L62.300781 68.900391C62.700781 60.900391 67.900781 53.8 75.300781 50.5C84.400781 46.4 92.099609 42.900781 93.599609 42.300781C97.999609 40.200781 99.3 33.700781 94.5 29.800781C92.5 28.200781 89.700391 27.999219 87.400391 29.199219C87.800391 27.499219 87.600391 25.799609 86.900391 24.099609C85.200391 20.499609 80.999219 18.600781 77.199219 19.800781C76.099219 20.200781 75.100781 20.7 74.300781 21.5C74.300781 21.4 74.199219 21.299219 74.199219 21.199219C72.699219 17.899219 69.400781 15.950391 65.988281 16.025391 z M 59 115.09961C57.3 115.09961 56 116.39961 56 118.09961L56 124.09961C56 125.89961 57.699609 127.4 59.599609 127C60.999609 126.7 62 125.40039 62 123.90039L62 118C62 116.3 60.7 114.99961 59 115.09961 z" fill="#4B1C97" />
</svg>