<svg xmlns="http://www.w3.org/2000/svg" viewBox="0 0 128 128">
  <path d="M83.550781 1.8378906C81.000781 1.7061719 78.490625 2.4682812 76.390625 4.0507812C73.600625 6.1507813 72 9.3500781 72 12.830078L72 43C72 50.17 77.83 56 85 56L115.16992 56C118.65992 56 121.86094 54.399375 123.96094 51.609375C126.07094 48.809375 126.71023 45.270391 125.74023 41.900391C120.24023 22.940391 105.05961 7.7595312 86.099609 2.2695312C85.254609 2.0245312 84.400781 1.8817969 83.550781 1.8378906 z M 83.009766 7.8300781C83.479766 7.8300781 83.959688 7.8992969 84.429688 8.0292969C101.42969 12.949297 115.05094 26.560547 119.96094 43.560547C120.41094 45.100547 120.11039 46.72 119.15039 48C118.20039 49.27 116.75016 49.990234 115.16016 49.990234L85 49.990234C81.14 50.000234 78 46.86 78 43L78 12.830078C78 11.250078 78.730234 9.7898438 79.990234 8.8398438C80.880234 8.1698438 81.929766 7.8300781 83.009766 7.8300781 z M 50.488281 7.8339844C49.644531 7.8766406 48.798437 8.0172656 47.960938 8.2597656C21.980937 15.739766 4.3891406 40.780781 6.1191406 67.800781C7.9791406 96.770781 31.229453 120.00914 60.189453 121.86914C61.419453 121.94914 62.639375 121.99023 63.859375 121.99023C89.449375 121.99023 112.59023 104.8293 119.74023 80.029297C120.70023 76.679297 120.05094 73.170859 117.96094 70.380859C115.86094 67.590859 112.65016 65.990234 109.16016 65.990234L69 65.990234C65.14 65.990234 62 62.850234 62 58.990234L62 18.830078C62 15.340078 60.399375 12.139063 57.609375 10.039062C55.516875 8.4640625 53.019531 7.7060156 50.488281 7.8339844 z M 51.009766 13.820312C52.069766 13.820312 53.12 14.160078 54 14.830078C55.27 15.790078 56 17.250078 56 18.830078L56 59C56 66.17 61.83 72 69 72L109.16992 72C110.75992 72 112.21992 72.73 113.16992 74C114.11992 75.27 114.42047 76.860859 113.98047 78.380859C107.27047 101.67086 84.790078 117.45063 60.580078 115.89062C34.610078 114.22062 13.779375 93.379922 12.109375 67.419922C10.549375 43.189922 26.329141 20.729531 49.619141 14.019531C50.079141 13.889531 50.549766 13.820313 51.009766 13.820312 z" fill="#4B1C97" />
</svg>