<svg xmlns="http://www.w3.org/2000/svg" viewBox="0 0 128 128">
  <path d="M64 4C38.6 4 18 24.6 18 50C18 63.8 24.100391 76.799609 34.900391 85.599609C43.000391 92.299609 53.4 96 64 96C89.4 96 110 75.4 110 50C110 24.6 89.4 4 64 4 z M 64 10C86.1 10 104 27.9 104 50C104 72.1 86.1 90 64 90C54.8 90 45.799219 86.8 38.699219 81C29.299219 73.3 24 62 24 50C24 27.9 41.9 10 64 10 z M 64 27C56.8 27 51 32.8 51 40C51 47.2 56.8 53 64 53C71.2 53 77 47.2 77 40C77 32.8 71.2 27 64 27 z M 64 33C67.9 33 71 36.1 71 40C71 43.9 67.9 47 64 47C60.1 47 57 43.9 57 40C57 36.1 60.1 33 64 33 z M 64 57C55.7 57 48.1 61.499609 44 68.599609C43.2 70.099609 43.699609 71.899219 45.099609 72.699219C45.599609 72.999219 46.099609 73.099609 46.599609 73.099609C47.599609 73.099609 48.699219 72.599219 49.199219 71.699219C52.199219 66.399219 57.9 63.099609 64 63.099609C70.1 63.099609 75.800781 66.399219 78.800781 71.699219C79.600781 73.099219 81.500391 73.600781 82.900391 72.800781C84.300391 72.000781 84.8 70.099219 84 68.699219C79.9 61.499219 72.3 57 64 57 z M 34 105C32.3 105 31 106.3 31 108C31 109.7 32.3 111 34 111L94 111C95.7 111 97 109.7 97 108C97 106.3 95.7 105 94 105L34 105 z M 44 120C42.3 120 41 121.3 41 123C41 124.7 42.3 126 44 126L63 126C64.7 126 66 124.7 66 123C66 121.3 64.7 120 63 120L44 120 z M 79 120C77.3 120 76 121.3 76 123C76 124.7 77.3 126 79 126L84 126C85.7 126 87 124.7 87 123C87 121.3 85.7 120 84 120L79 120 z" fill="#4B1C97" />
</svg>