<svg xmlns="http://www.w3.org/2000/svg" viewBox="0 0 128 128">
  <path d="M14 1C6.8 1 1 6.8 1 14L1 114C1 121.2 6.8 127 14 127L114 127C121.2 127 127 121.2 127 114L127 14C127 6.8 121.2 1 114 1L14 1 z M 14 7L114 7C117.9 7 121 10.1 121 14L121 29L7 29L7 14C7 10.1 10.1 7 14 7 z M 18 15C16.3 15 15 16.3 15 18C15 19.7 16.3 21 18 21L22 21C23.7 21 25 19.7 25 18C25 16.3 23.7 15 22 15L18 15 z M 34 15C32.3 15 31 16.3 31 18C31 19.7 32.3 21 34 21L38 21C39.7 21 41 19.7 41 18C41 16.3 39.7 15 38 15L34 15 z M 7 35L121 35L121 114C121 117.9 117.9 121 114 121L14 121C10.1 121 7 117.9 7 114L7 35 z M 24 60C22.3 60 21 61.3 21 63C21 64.7 22.3 66 24 66L61 66C62.7 66 64 64.7 64 63C64 61.3 62.7 60 61 60L24 60 z M 77 60C75.3 60 74 61.3 74 63L74 93C74 94.7 75.3 96 77 96L104 96C105.7 96 107 94.7 107 93L107 63C107 61.3 105.7 60 104 60L77 60 z M 80 66L101 66L101 90L80 90L80 66 z M 24 75C22.3 75 21 76.3 21 78C21 79.7 22.3 81 24 81L61 81C62.7 81 64 79.7 64 78C64 76.3 62.7 75 61 75L24 75 z M 24 90C22.3 90 21 91.3 21 93C21 94.7 22.3 96 24 96L40 96C41.7 96 43 94.7 43 93C43 91.3 41.7 90 40 90L24 90 z M 56 90C54.3 90 53 91.3 53 93C53 94.7 54.3 96 56 96L61 96C62.7 96 64 94.7 64 93C64 91.3 62.7 90 61 90L56 90 z" fill="#4B1C97" />
</svg>